<svg class="svg-icon" style="width: 1em; height: 1em;vertical-align: middle;fill: currentColor;overflow: hidden;" viewBox="0 0 1024 1024" version="1.1" xmlns="http://www.w3.org/2000/svg"><path d="M832 597.333333a170.666667 170.666667 0 1 1 170.666667-170.666666 170.666667 170.666667 0 0 1-170.666667 170.666666z m0-298.666666a128 128 0 1 0 128 128 128 128 0 0 0-128-128z m74.666667 149.333333H853.333333v53.333333a10.666667 10.666667 0 0 1-10.666666 10.666667h-21.333334a10.666667 10.666667 0 0 1-10.666666-10.666667V448h-53.333334a10.666667 10.666667 0 0 1-10.666666-10.666667v-21.333333a10.666667 10.666667 0 0 1 10.666666-10.666667H810.666667v-53.333333a10.666667 10.666667 0 0 1 10.666666-10.666667h21.333334a10.666667 10.666667 0 0 1 10.666666 10.666667V405.333333h53.333334a10.666667 10.666667 0 0 1 10.666666 10.666667v21.333333a10.666667 10.666667 0 0 1-10.666666 10.666667zM917.333333 138.197333A76.117333 76.117333 0 0 0 839.424 64h-697.6A76.117333 76.117333 0 0 0 64 138.197333v704.938667c0 29.034667-5.354667 108.8 21.333333 116.864 12.330667 3.712 39.488-23.658667 64-42.666667 0 0 322.709333-298.666667 341.333334-298.666666 18.986667 0 348.757333 298.666667 348.757333 298.666666 17.813333 15.893333 45.952 42.922667 56.576 42.666667 22.698667-0.533333 21.333333-85.76 21.333333-116.864V640h42.666667v277.333333a85.333333 85.333333 0 0 1-85.333333 85.333334S511.466667 682.666667 490.666667 682.666667c-20.394667 0-384 320-384 320a85.333333 85.333333 0 0 1-85.333334-85.333334V106.666667a85.333333 85.333333 0 0 1 85.333334-85.333334h768a85.333333 85.333333 0 0 1 85.333333 85.333334v106.666666h-42.666667V138.197333z" fill="#333333" /></svg>