<svg class="svg-icon" style="width: 1em; height: 1em;vertical-align: middle;fill: currentColor;overflow: hidden;" viewBox="0 0 1024 1024" version="1.1" xmlns="http://www.w3.org/2000/svg"><path d="M642.986667 170.666667H381.013333c-57.813333 0-105.429333 0-143.146666 5.077333-39.594667 5.290667-74.538667 16.896-102.528 44.928-27.989333 27.989333-39.637333 62.933333-44.928 102.528C85.333333 360.917333 85.333333 408.533333 85.333333 466.304v91.392c0 57.770667 0 105.386667 5.12 143.104 5.248 39.594667 16.896 74.538667 44.885334 102.528 27.989333 28.032 62.933333 39.637333 102.528 44.928 37.717333 5.12 85.333333 5.12 143.146666 5.077333h261.973334c57.813333 0 105.429333 0 143.146666-5.077333 39.552-5.290667 74.538667-16.896 102.528-44.928 27.989333-27.989333 39.637333-62.933333 44.928-102.528 5.077333-37.717333 5.077333-85.333333 5.077334-143.104v-91.392c0-57.770667 0-105.386667-5.12-143.104-5.248-39.594667-16.896-74.538667-44.885334-102.528-27.989333-28.032-62.976-39.637333-102.528-44.928-37.717333-5.12-85.333333-5.12-143.146666-5.077333zM195.669333 281.002667c9.514667-9.514667 23.466667-16.64 53.589334-20.693334C280.576 256.085333 322.474667 256 384 256h256c61.525333 0 103.424 0.085333 134.741333 4.266667 30.122667 4.096 44.074667 11.221333 53.589334 20.736 9.514667 9.472 16.64 23.466667 20.693333 53.546666 4.224 31.36 4.309333 73.216 4.309333 134.784v85.333334c0 61.568-0.085333 103.424-4.266666 134.784-4.096 30.122667-11.221333 44.074667-20.736 53.546666-9.514667 9.514667-23.466667 16.64-53.589334 20.693334-31.317333 4.224-73.216 4.309333-134.741333 4.309333H384c-61.525333 0-103.424-0.085333-134.741333-4.266667-30.122667-4.096-44.074667-11.221333-53.589334-20.736-9.514667-9.472-16.64-23.466667-20.693333-53.546666C170.752 658.090667 170.666667 616.234667 170.666667 554.666667v-85.333334c0-61.525333 0.085333-103.424 4.266666-134.784 4.096-30.122667 11.221333-44.074667 20.736-53.546666z m102.101334 86.869333a42.666667 42.666667 0 0 0-40.874667 74.922667l112.085333 61.141333 1.706667 0.896c28.501333 15.573333 52.48 28.672 73.472 37.632 22.186667 9.514667 43.776 15.744 67.84 15.744 24.106667 0 45.696-6.229333 67.84-15.744 20.949333-8.96 44.970667-22.058667 73.514667-37.632l113.749333-62.037333a42.666667 42.666667 0 0 0-40.832-74.922667l-112.085333 61.141333c-30.72 16.725333-51.157333 27.818667-67.925334 35.029334-15.957333 6.826667-25.728 8.832-34.261333 8.832-8.533333 0-18.261333-1.962667-34.218667-8.832-16.768-7.210667-37.248-18.304-67.968-35.029334L297.813333 367.872z"  /></svg>