<svg class="svg-icon" style="width: 1em; height: 1em;vertical-align: middle;fill: currentColor;overflow: hidden;" viewBox="0 0 1024 1024" version="1.1" xmlns="http://www.w3.org/2000/svg"><path d="M770.413714 713.142857l-35.766857-53.650286a128 128 0 0 1-21.504-70.985142V402.285714a201.142857 201.142857 0 0 0-402.285714 0v186.221715a128 128 0 0 1-21.504 70.985142L253.586286 713.142857h516.827428zM512 164.571429a237.714286 237.714286 0 0 1 237.714286 237.714285v186.221715c0 18.029714 5.339429 35.693714 15.36 50.688l54.710857 82.102857A18.285714 18.285714 0 0 1 804.571429 749.714286H219.428571a18.285714 18.285714 0 0 1-15.213714-28.416l54.710857-82.102857a91.428571 91.428571 0 0 0 15.36-50.688V402.285714A237.714286 237.714286 0 0 1 512 164.571429z m-106.203429 653.531428a18.285714 18.285714 0 0 1 29.403429-21.796571 95.305143 95.305143 0 0 0 76.8 38.765714c30.683429 0 58.88-14.555429 76.8-38.765714a18.285714 18.285714 0 1 1 29.403429 21.76A131.876571 131.876571 0 0 1 512 871.606857a131.876571 131.876571 0 0 1-106.203429-53.540571z"  /></svg>